<?xml version="1.0" encoding="utf-8"?>
<!-- Generator: Adobe Illustrator 19.1.0, SVG Export Plug-In . SVG Version: 6.00 Build 0)  -->
<svg version="1.1" id="Layer_1" xmlns="http://www.w3.org/2000/svg" xmlns:xlink="http://www.w3.org/1999/xlink" x="0px" y="0px"
	 viewBox="0 0 450 450" style="enable-background:new 0 0 450 450;" xml:space="preserve">
<style type="text/css">
	.st0{fill:#C4EDF1;}
	.st1{fill:#B0E7EC;}
	.st2{fill:#89DAE2;}
	.st3{fill:#9DE1E7;}
</style>
<g id="XMLID_1_">
	<g>
		<path class="st0" d="M447.5,225c0,0.2,0,0.3,0,0.5H447H225V225l192.7-111.2l0,0C436.7,146.5,447.5,184.5,447.5,225z"/>
		<path class="st1" d="M417.7,113.7L417.7,113.7L225,225L148.9,15.9l0-0.1C172.6,7.2,198.3,2.5,225,2.5
			C307.3,2.5,379.2,47.2,417.7,113.7z"/>
		<path class="st2" d="M148.9,15.9L225,225L5.9,186.4l0,0C19.7,107.3,75.2,42.7,148.9,15.9L148.9,15.9z"/>
		<path class="st3" d="M447,225.5h0.5c-0.3,122.6-99.8,222-222.5,222C102.1,447.5,2.5,347.9,2.5,225c0-13.2,1.2-26.1,3.3-38.6l0,0
			L225,225v0.5H447z"/>
	</g>
	<g>
	</g>
</g>
</svg>
