<?xml version="1.0" encoding="utf-8"?>
<!-- Generator: Adobe Illustrator 19.1.0, SVG Export Plug-In . SVG Version: 6.00 Build 0)  -->
<svg version="1.1" id="Layer_1" xmlns="http://www.w3.org/2000/svg" xmlns:xlink="http://www.w3.org/1999/xlink" x="0px" y="0px"
	 viewBox="0 0 160 156" style="enable-background:new 0 0 160 156;" xml:space="preserve">
<style type="text/css">
	<!-- .st0{fill:#B1509E;} -->
	.st0{fill:none;stroke:white;stroke-width:4;stroke-linejoin:round;stroke-miterlimit:10;}
	.st1{fill:none;stroke:#B1509E;stroke-width:4;stroke-linejoin:round;stroke-miterlimit:10;}
	.st2{fill:none;}
</style>
<g>
	<path class="st0" d="M131,4H29C15.7,4,5,14.7,5,28v102c0,13.3,10.7,24,24,24h102c13.3,0,24-10.7,24-24V28C155,14.7,144.3,4,131,4z
		 M151,130c0,11-9,20-20,20H29c-11,0-20-9-20-20V28C9,17,18,8,29,8h102c11,0,20,9,20,20V130z"/>
	<path class="st0" d="M30,110h100V50H30V110z M36,106l33.9-25.7l10.5,7.5l0.6,0.4l10.4-7.7l32.7,25.4H36z M126,105L93.1,79.3L126,55
		V105z M124,54L81,85.8L36.5,54H124z M34,54.7l34.2,24.4L34,105V54.7z"/>
</g>
</svg>
