<?xml version="1.0" encoding="utf-8"?>
<!-- Generator: Adobe Illustrator 19.1.0, SVG Export Plug-In . SVG Version: 6.00 Build 0)  -->
<svg version="1.1" id="Layer_1" xmlns="http://www.w3.org/2000/svg" xmlns:xlink="http://www.w3.org/1999/xlink" x="0px" y="0px"
	 viewBox="0 0 160 156" style="enable-background:new 0 0 160 156;" xml:space="preserve">
<style type="text/css">
	.st0{fill:#B1509E;}
	.st1{fill:none;stroke:#B1509E;stroke-width:4;stroke-linejoin:round;stroke-miterlimit:10;}
	.st2{fill:none;}
</style>
<g>
	<path class="st0" d="M156,29c0-13.3-10.7-24-24-24H30C16.7,5,6,15.7,6,29v102c0,13.3,10.7,24,24,24h102c13.3,0,24-10.7,24-24V29z
		 M152,131c0,11-9,20-20,20H30c-11,0-20-9-20-20V29c0-11,9-20,20-20h102c11,0,20,9,20,20V131z"/>
	<polygon class="st0" points="59,64 65,64 65,45.4 74.1,18 68.5,18 62.1,38 62,38 56.4,18 50,18 59,45.4 	"/>
	<path class="st0" d="M70,40.5v16.3c0,6,4.4,8,9,8c5.4,0,9-3.2,9-8.6V39.8c0-6-4.4-8-9-8C73.6,31.8,70,35,70,40.5z M76,40.1
		c0-2.6,1.1-4,3-4c1.9,0,3,1.5,3,4v16.4c0,2.6-1.1,4-3,4c-1.9,0-3-1.5-3-4V40.1z"/>
	<path class="st0" d="M97.6,64.7c1.2,0,2.3-0.1,3.2-0.7c1-0.5,1.7-1.1,2.3-2.1H103v2h6V32h-6v24.7c0,2.5-1.2,3.4-2.7,3.4
		c-1.9,0-2.3-1.2-2.3-2.9V32h-6v26.4C92,63.1,94.6,64.7,97.6,64.7z"/>
	<polygon class="st0" points="64,83 42,83 42,88 50,88 50,129 56,129 56,88 64,88 	"/>
	<path class="st0" d="M72,121.4c0,2.5-1.2,3.4-2.7,3.4c-1.9,0-2.3-1.2-2.3-2.9V97h-6v26c0,4.7,2.7,6.3,5.7,6.3c1.2,0,2.3-0.4,3.3-1
		c1-0.5,1.8-1.4,2.3-2.4H72v3h6V97h-6V121.4z"/>
	<path class="st0" d="M93.6,96.5c-1,0-1.9,0.1-2.9,0.6c-1,0.4-1.7,1-2.2,2H88V83h-6v46h6v-2h0.2c1.2,1,3,2.5,5.4,2.5
		c3.5,0,5.4-2.8,5.4-7.6v-18C99,99.2,97.1,96.5,93.6,96.5z M93,120.9c0,3.7-1,4.6-2.6,4.6c-1.2,0-2.4-1-2.4-3.4V106
		c0-4,1.1-5.2,2.7-5.2c1.3,0,2.3,0.9,2.3,4.4V120.9z"/>
	<path class="st0" d="M112.5,96.5c-5.6,0-8.5,3.2-8.5,8.6v16.3c0,6,3.7,8,8.3,8c6.7,0,8.7-3.1,8.7-6.4v-5h-6v3.4
		c0,2.6-0.2,4.2-2.5,4.2c-1.9,0-2.5-0.8-2.5-3.8V115h11v-10.5C121,98.5,117.3,96.5,112.5,96.5z M115,111h-5v-7.2
		c0-2.3,0.3-3.5,2.5-3.5c2,0,2.5,1.2,2.5,4V111z"/>
	<path class="st0" d="M117,69H48c-9.9,0-18,8.1-18,18v39c0,9.9,8.1,18,18,18h69c9.9,0,18-8.1,18-18V87C135,77.1,126.9,69,117,69z
		 M131,126c0,7.7-6.3,14-14,14H48c-7.7,0-14-6.3-14-14V87c0-7.7,6.3-14,14-14h69c7.7,0,14,6.3,14,14V126z"/>
</g>
</svg>
