<?xml version="1.0" encoding="utf-8"?>
<!-- Generator: Adobe Illustrator 19.1.0, SVG Export Plug-In . SVG Version: 6.00 Build 0)  -->
<svg version="1.1" id="Layer_1" xmlns="http://www.w3.org/2000/svg" xmlns:xlink="http://www.w3.org/1999/xlink" x="0px" y="0px"
	 viewBox="0 0 160 156" style="enable-background:new 0 0 160 156;" xml:space="preserve">
<style type="text/css">
	.st0{fill:#B1509E;}
	.st1{fill:none;stroke:#B1509E;stroke-width:4;stroke-linejoin:round;stroke-miterlimit:10;}
	.st2{fill:none;}
</style>
<g>
	<path class="st0" d="M132,3H30C16.7,3,6,13.7,6,27v102c0,13.3,10.7,24,24,24h102c13.3,0,24-10.7,24-24V27C156,13.7,145.3,3,132,3z
		 M152,129c0,11-9,20-20,20H30c-11,0-20-9-20-20V27c0-11,9-20,20-20h102c11,0,20,9,20,20V129z"/>
	<path class="st0" d="M61,120h12.4c-2.4,2-4.3,5.9-5.8,9.4c-1.5,3.5-2.4,6.9-2.6,10.6h5.5c0-1.7,0.2-3.5,0.6-5.4
		c0.4-1.9,0.9-3.9,1.6-5.8c0.7-1.9,1.7-3.7,2.7-5.4c1-1.7,1.7-3.1,3.7-4.2V115H61V120z"/>
	<path class="st0" d="M95,126.5L95,126.5c1-0.4,2-1,2.6-2c0.6-0.9,0.9-2,0.9-3.2c0-1.1-0.3-2.1-0.8-3c-0.5-0.9-1.2-1.6-2-2.2
		c-0.8-0.6-1.7-1-2.7-1.3c-1-0.3-2-0.5-3-0.5c-1.3,0-2.5,0.2-3.5,0.6c-1.1,0.4-2,1-2.7,1.8c-0.8,0.8-1.3,1.7-1.8,2.8
		c-0.4,1.1-0.7,2.5-0.7,3.5h4.9c0-1,0.3-2.4,1-3.2c0.7-0.9,1.6-1.3,2.9-1.3c0.9,0,1.8,0.3,2.5,0.9c0.7,0.6,1.1,1.4,1.1,2.5
		c0,0.7-0.2,1.3-0.5,1.7c-0.3,0.4-0.8,0.8-1.3,1c-0.5,0.2-1.2,0.4-1.9,0.4c-0.6,0-0.9,0-1.9,0v3.6c1,0,1.4,0,2.1,0.1
		c0.7,0,1.4,0.2,1.9,0.4c0.6,0.2,1.1,0.6,1.5,1.1c0.4,0.5,0.6,1.2,0.6,2.2c0,1.2-0.4,2.2-1.2,2.9c-0.8,0.7-1.8,1.1-2.9,1.1
		c-0.7,0-1.4-0.1-1.9-0.4c-0.5-0.3-1-0.6-1.3-1.1c-0.4-0.4-0.6-1.1-0.8-1.7c-0.2-0.6-0.3-1.1-0.3-2.1h-4.9c0,2,0.2,2.9,0.6,4
		c0.4,1.1,1.1,2.2,1.9,2.9c0.8,0.8,1.8,1.4,3,1.8c1.2,0.4,2.5,0.6,3.9,0.6c1.2,0,2.4-0.2,3.5-0.5c1.1-0.4,2.1-0.9,3-1.6
		c0.9-0.7,1.6-1.6,2.1-2.6c0.5-1,0.8-2.2,0.8-3.5c0-1.4-0.4-2.7-1.1-3.7C97.4,127.5,96,126.8,95,126.5z"/>
	<path class="st0" d="M105.5,113c-3.6,0-6.5,2.9-6.5,6.5s2.9,6.5,6.5,6.5s6.5-2.9,6.5-6.5S109.1,113,105.5,113z M105.5,122
		c-1.4,0-2.5-1.1-2.5-2.5s1.1-2.5,2.5-2.5c1.4,0,2.5,1.1,2.5,2.5S106.9,122,105.5,122z"/>
	<path class="st0" d="M113,70c0-4.4-0.5-8.8-1.8-13.1c-1.3-4.3-3.2-8.4-6-12c-2.7-3.7-6.4-6.7-10.5-8.8c-4.2-2.1-8.8-3.1-13.4-3.1
		c-4.6,0-9.2,0.9-13.5,2.7c-4.2,1.9-8,4.7-10.9,8.3c-2.9,3.5-5,7.7-6.2,11.9c-1.2,4.3-1.8,8.7-1.7,13.1c0.8-4.3,1.8-8.5,3.5-12.4
		c1.6-3.9,3.9-7.5,6.7-10.5c5.7-6,13.9-9.2,22-9.1c8.2-0.1,16.1,3.6,21.6,9.9c2.7,3.1,4.9,6.8,6.5,10.7
		C111.1,61.5,112.2,65.7,113,70z"/>
	<path class="st0" d="M128,71l-9.3-1.7c0.1-1.2,0.2-2.4,0.2-3.7l8-1.6l-8,0c-0.1-2.2-0.3-4.4-0.7-6.5L124,56l-6.1,0
		c-0.4-1.6-0.9-3.2-1.5-4.8L120,50l-4.1,0c-0.9-2.1-2-4.1-3.2-5.9c0.2-0.2,0.4-0.3,0.6-0.5c0.6-0.5,1.1-1,1.6-1.5
		c1.1-1,2.1-2,3.1-3.1c-1.2,0.8-2.4,1.6-3.7,2.3c-0.6,0.4-1.2,0.7-1.9,1.1c-0.2,0.1-0.5,0.2-0.7,0.4c-1.1-1.5-2.3-3-3.6-4.3L114,33
		l-7.1,4.3c-1-0.9-2.1-1.8-3.2-2.7c0.6-0.7,0.9-1.4,1.4-2.1l1.3-2.2L109,26l-3.3,3.8l-1.7,1.8c-0.6,0.6-1.2,1.3-1.7,1.7l0.9,0.9
		c-1.5-1.1-3.1-2.1-4.8-3L102,21l-5.3,9.4c-1.9-0.9-4-1.6-6.1-2.2L94,19l-5,8.9c-1.3-0.3-2.7-0.5-4.1-0.7l0-5.2l-1.5,5.1
		C82.7,27,81.8,27,81,27c-1.4,0-2.8,0.1-4.2,0.2c-0.2-1.3-0.4-2.5-0.7-3.8c-0.4-1.8-0.7-3.6-1.1-5.4c0.1,1.8,0.1,3.7,0.1,5.5
		c0,1.3,0,2.6,0,3.9c-1.3,0.2-2.5,0.5-3.8,0.8L69,23l0.8,5.7c-1.8,0.6-3.6,1.3-5.3,2.1c-0.1-0.1-0.1-0.2-0.2-0.3
		c-0.2-0.3-0.5-0.7-0.7-1c-0.5-0.6-1-1.3-1.5-1.9c-1-1.2-2-2.4-3.1-3.6c0.8,1.4,1.5,2.8,2.3,4.2c0.4,0.7,0.7,1.4,1.1,2.1
		c0.2,0.4,0.3,0.7,0.5,1c0,0.1,0.1,0.2,0.1,0.3c-2.1,1.2-4.1,2.5-6,4.1L48,29l7.5,7.9c-1,0.9-2,1.9-2.9,2.9L48,38l3.5,3
		c-1.1,1.4-2.1,2.8-3,4.3L40,42l7.7,4.7c-1.2,2.2-2.2,4.6-3,7L39,51l5.3,4.2c-0.4,1.6-0.7,3.2-1,4.9L37,60l6.2,1.6
		C43.1,62.7,43,63.8,43,65c0,0.9,0,1.8,0.1,2.7L35,68.5l8.3,0.8c0.2,1.9,0.6,3.7,1,5.4L37,75.5l7.7,0.8c0.5,1.6,1.1,3.1,1.8,4.5
		L43,83l4.1-0.8c0.6,1.2,1.2,2.3,1.9,3.4L43,88l6.8-1.3c0.8,1.2,1.8,2.4,2.7,3.5L46,97l7.6-5.7c1.4,1.5,3,2.9,4.6,4.1L54,100
		l5.6-3.6c1.2,0.8,2.5,1.6,3.8,2.3L61,107l3.9-7.6c1.2,0.6,2.5,1.1,3.7,1.5L68,104l1.7-2.7c1.4,0.4,2.8,0.8,4.3,1.1l0,2.7l0.9-2.5
		c1.4,0.2,2.8,0.4,4.2,0.5l0,2.1l1.1-2c0.3,0,0.6,0,0.9,0c0.9,0,1.8,0,2.7-0.1L85,106l0-3.2c2-0.2,3.9-0.6,5.8-1.1L93,106l-0.8-4.7
		c1.3-0.4,2.6-0.9,3.9-1.4L99,104l-1.6-4.7c1-0.5,2-1,2.9-1.6l5.7,5.3l-4.2-6.2c1.2-0.8,2.4-1.6,3.4-2.5L111,99l-4.7-5.7
		c1.1-1,2.1-2,3-3L117,96l-6.6-6.9c0.6-0.7,1.2-1.5,1.7-2.3L116,89l-3.1-3.4c0.7-1,1.3-2.1,1.9-3.2L122,84l-6.6-3
		c0.8-1.6,1.4-3.3,1.9-5l7.6,0l-7.1-1.8c0.3-1.1,0.5-2.1,0.7-3.2L128,71z M47,65c0-18.7,15.3-34,34-34s34,15.3,34,34S99.7,99,81,99
		S47,83.7,47,65z"/>
</g>
</svg>
