<?xml version="1.0" encoding="utf-8"?>
<!-- Generator: Adobe Illustrator 19.1.0, SVG Export Plug-In . SVG Version: 6.00 Build 0)  -->
<svg version="1.1" id="Layer_1" xmlns="http://www.w3.org/2000/svg" xmlns:xlink="http://www.w3.org/1999/xlink" x="0px" y="0px"
	 viewBox="0 0 160 156" style="enable-background:new 0 0 160 156;" xml:space="preserve">
<style type="text/css">
	.st0{fill:#B1509E;}
	.st1{fill:none;stroke:#B1509E;stroke-width:4;stroke-linejoin:round;stroke-miterlimit:10;}
	.st2{fill:none;}
</style>
<g>
	<path class="st0" d="M131,3H29C15.7,3,5,13.7,5,27v102c0,13.3,10.7,24,24,24h102c13.3,0,24-10.7,24-24V27C155,13.7,144.3,3,131,3z
		 M151,129c0,11-9,20-20,20H29c-11,0-20-9-20-20V27C9,16,18,7,29,7h102c11,0,20,9,20,20V129z"/>
	<path class="st0" d="M80,31c-36.6,0-53,24.6-53,41.9c0,0.3-0.7,26.7,23.1,36.5c0.3,6.6-2.5,8.6-5.7,10.9c-0.5,0.4-1,0.7-1.6,1.1
		c-0.6,0.5-0.9,1.3-0.8,2c0.2,0.8,0.8,1.4,1.6,1.5c2.1,0.4,4,0.6,5.8,0.6c7.2,0,12.6-3.3,18.5-11.4c2.1,0.3,6.8,0.8,12.1,0.8
		c18.1,0,31.7-4.7,40.3-14c10-10.8,10.1-24.7,9.7-30.2C128.8,54.8,114.4,31,80,31z M117.3,98.3C109.5,106.7,97,111,80,111
		c-6.7,0-12.6-1-12.7-1c-0.8-0.1-1.5,0.2-2,0.8c-5.4,7.8-9.9,10.8-16.1,10.7c2.9-2.5,5.5-6.1,4.7-13.8c-0.1-0.8-0.6-1.4-1.3-1.7
		C30.4,97.8,31,74.1,31,73c0-12.4,12-38,49-38c35.5,0,45.2,26.1,46,36.2C126.4,76.1,126.3,88.6,117.3,98.3z"/>
</g>
</svg>
