<?xml version="1.0" encoding="utf-8"?>
<!-- Generator: Adobe Illustrator 19.1.0, SVG Export Plug-In . SVG Version: 6.00 Build 0)  -->
<svg version="1.1" id="Layer_1" xmlns="http://www.w3.org/2000/svg" xmlns:xlink="http://www.w3.org/1999/xlink" x="0px" y="0px"
	 viewBox="0 0 160 156" style="enable-background:new 0 0 160 156;" xml:space="preserve">
<style type="text/css">
	<!-- .st0{fill:#B1509E;} -->
	.st0{fill:none;stroke:white;stroke-width:4;stroke-linejoin:round;stroke-miterlimit:10;}
	.st1{fill:none;stroke:#B1509E;stroke-width:4;stroke-linejoin:round;stroke-miterlimit:10;}
	.st2{fill:none;}
</style>
<g>
	<g>
		<path class="st0" d="M131,3H29C15.7,3,5,13.7,5,27v102c0,13.3,10.7,24,24,24h102c13.3,0,24-10.7,24-24V27C155,13.7,144.3,3,131,3
			L131,3z M29,149c-11,0-20-9-20-20V27C9,16,18,7,29,7h102c11,0,20,9,20,20v102c0,11-9,20-20,20H29L29,149z"/>
	</g>
	<g>
		<path class="st0" d="M100,44c2.3,0,5.9,0.5,10.2,4.8c0.8,0.8,1.8,1.2,2.8,1.2c0.6,0,1.3-0.2,1.9-0.5l0.1-0.1
			c-0.1,0.9,0.1,1.8,0.6,2.7c0.5,0.8,1.3,1.5,2.2,1.7c-0.4,0.4-0.8,0.7-1.2,1c-1.1,0.8-1.7,2.1-1.6,3.5c0,0.3,1.6,27.2-18.6,44.7
			c-10.6,9.2-23.5,11.1-32.4,11.1c-6.3,0-12.1-0.9-17-2.3c5.9-1.6,11.6-4.5,15.2-9.3c0.9-1.2,1.1-2.8,0.4-4.2
			C61.9,96.9,60.5,96,59,96c-2,0-5.5-1.2-9.1-4c0,0,0.1,0,0.1,0c1.9,0,3.6-1.4,3.9-3.3c0.4-1.9-0.7-3.8-2.5-4.5
			c-0.1,0-7.4-2.9-11.4-9.8c1.9,0,3.5-0.2,4.9-0.6c1.4-0.3,2.5-1.4,2.9-2.8c0.4-1.4,0-2.9-1-3.9l-0.4-0.4c-3.8-3.8-7.7-8.7-7.3-15.1
			C48.9,62.9,66.9,65.3,79.5,67c0.2,0,0.4,0,0.5,0c1,0,2-0.4,2.7-1.1c0.9-0.8,1.3-2,1.3-3.2c-0.8-12.4,6-17.1,9.8-17.8
			c0.3-0.1,0.6-0.1,0.9-0.2C96.4,44.4,98.1,44,100,44 M126,39l-13,7c-4.8-4.8-9.2-6-13-6c-2.6,0-5,0.6-7,1c-5,1-14,7-13,22
			c-15-2-36-5-42-21c-8,15,3,25,6,28c-1.3,0.3-2.9,0.4-4.4,0.4c-3,0-5.6-0.4-5.6-0.4c3,13,16,18,16,18c-5,0-10-1-10-1
			c6,9,14,13,19,13c-5.1,6.8-15.9,9.2-23.3,9.2c-1.4,0-2.6-0.1-3.7-0.2c5.9,4.8,18.3,9.1,32,9.1c11.9,0,24.7-3.2,35-12.1
			c22-19,20-48,20-48c4-3,10-9,10-9l-10,1L126,39L126,39z"/>
	</g>
	<!-- <g>
		<path class="st0" d="M100,44c2.3,0,5.9,0.5,10.2,4.8c0.8,0.8,1.8,1.2,2.8,1.2c0.6,0,1.3-0.2,1.9-0.5l0.1-0.1
			c-0.1,0.9,0.1,1.8,0.6,2.7c0.5,0.8,1.3,1.5,2.2,1.7c-0.4,0.4-0.8,0.7-1.2,1c-1.1,0.8-1.7,2.1-1.6,3.5c0,0.3,1.6,27.2-18.6,44.7
			c-10.6,9.2-23.5,11.1-32.4,11.1c-6.3,0-12.1-0.9-17-2.3c5.9-1.6,11.6-4.5,15.2-9.3c0.9-1.2,1.1-2.8,0.4-4.2
			C61.9,96.9,60.5,96,59,96c-2,0-5.5-1.2-9.1-4c0,0,0.1,0,0.1,0c1.9,0,3.6-1.4,3.9-3.3c0.4-1.9-0.7-3.8-2.5-4.5
			c-0.1,0-7.4-2.9-11.4-9.8c1.9,0,3.5-0.2,4.9-0.6c1.4-0.3,2.5-1.4,2.9-2.8c0.4-1.4,0-2.9-1-3.9l-0.4-0.4c-3.8-3.8-7.7-8.7-7.3-15.1
			C48.9,62.9,66.9,65.3,79.5,67c0.2,0,0.4,0,0.5,0c1,0,2-0.4,2.7-1.1c0.9-0.8,1.3-2,1.3-3.2c-0.8-12.4,6-17.1,9.8-17.8
			c0.3-0.1,0.6-0.1,0.9-0.2C96.4,44.4,98.1,44,100,44 M126,39l-13,7c-4.8-4.8-9.2-6-13-6c-2.6,0-5,0.6-7,1c-5,1-14,7-13,22
			c-15-2-36-5-42-21c-8,15,3,25,6,28c-1.3,0.3-2.9,0.4-4.4,0.4c-3,0-5.6-0.4-5.6-0.4c3,13,16,18,16,18c-5,0-10-1-10-1
			c6,9,14,13,19,13c-5.1,6.8-15.9,9.2-23.3,9.2c-1.4,0-2.6-0.1-3.7-0.2c5.9,4.8,18.3,9.1,32,9.1c11.9,0,24.7-3.2,35-12.1
			c22-19,20-48,20-48c4-3,10-9,10-9l-10,1L126,39L126,39z"/>
	</g> -->
</g>
</svg>
