<?xml version="1.0" encoding="utf-8"?>
<!-- Generator: Adobe Illustrator 19.1.0, SVG Export Plug-In . SVG Version: 6.00 Build 0)  -->
<svg version="1.1" id="Layer_1" xmlns="http://www.w3.org/2000/svg" xmlns:xlink="http://www.w3.org/1999/xlink" x="0px" y="0px"
	 viewBox="0 0 160 156" style="enable-background:new 0 0 160 156;" xml:space="preserve">
<style type="text/css">
	.st0{fill:#B1509E;}
	.st1{fill:none;stroke:#B1509E;stroke-width:4;stroke-linejoin:round;stroke-miterlimit:10;}
	.st2{fill:none;}
</style>
<g>
	<path class="st0" d="M131,4H29C15.7,4,5,14.7,5,28v102c0,13.3,10.7,24,24,24h102c13.3,0,24-10.7,24-24V28C155,14.7,144.3,4,131,4z
		 M151,130c0,11-9,20-20,20H29c-11,0-20-9-20-20V28C9,17,18,8,29,8h102c11,0,20,9,20,20V130z"/>
	<path class="st0" d="M79,15c-35.3,0-64,28.7-64,64s28.7,64,64,64s64-28.7,64-64S114.3,15,79,15z M80,139v-2h-2v2
		c-32.3-0.5-58.4-26.7-59-59h2v-2h-2c0.5-32.3,26.7-58.4,59-59v2h2v-2c32.3,0.5,58.4,26.7,59,59h-2v2h2
		C138.4,112.3,112.3,138.4,80,139z"/>
	<path class="st0" d="M88.9,77.1c-0.9-4.3-4.4-7.6-8.9-8V26h-2v43.1c-1.7,0.2-3.2,0.8-4.6,1.6L57.3,56.5l-2.6,3l15.9,14
		c-1,1.6-1.7,3.5-1.7,5.5c0,5.5,4.5,10.1,10.1,10.1c4.9,0,8.9-3.5,9.9-8.1L123,81l0-4L88.9,77.1z M79,85.1c-3.3,0-6.1-2.7-6.1-6.1
		c0-3,2.2-5.5,5.1-6V79h2v-5.9c2.9,0.5,5.1,3,5.1,6C85.1,82.4,82.3,85.1,79,85.1z"/>
</g>
</svg>
