<?xml version="1.0" encoding="utf-8"?>
<!-- Generator: Adobe Illustrator 19.1.0, SVG Export Plug-In . SVG Version: 6.00 Build 0)  -->
<svg version="1.1" id="Layer_1" xmlns="http://www.w3.org/2000/svg" xmlns:xlink="http://www.w3.org/1999/xlink" x="0px" y="0px"
	 viewBox="0 0 160 156" style="enable-background:new 0 0 160 156;" xml:space="preserve">
<style type="text/css">
	.st0{fill:#B1509E;}
	.st1{fill:none;stroke:#B1509E;stroke-width:4;stroke-linejoin:round;stroke-miterlimit:10;}
	.st2{fill:none;}
</style>
<g>
	<path class="st0" d="M131,3H29C15.7,3,5,13.7,5,27v102c0,13.3,10.7,24,24,24h102c13.3,0,24-10.7,24-24V27C155,13.7,144.3,3,131,3z
		 M151,129c0,11-9,20-20,20H29c-11,0-20-9-20-20V27C9,16,18,7,29,7h102c11,0,20,9,20,20V129z"/>
	<path class="st0" d="M119.9,41.2l-0.2-0.1c-0.3-0.1-0.7-0.1-1-0.1c-0.2,0-0.4,0-0.7,0H40c-0.2,0-0.5,0-0.7,0c-0.4-0.1-0.7,0-1,0.1
		C33.6,42,30,46.1,30,51v54c0,5.5,4.5,10,10,10h78c5.5,0,10-4.5,10-10V51C128,46.1,124.5,42.1,119.9,41.2z M78.9,87.6
		c0.2,0.2,0.5,0.2,0.7,0.3l32.7,23.1H47V65.7L78.9,87.6z M113,109.1L81.9,87.1c3.4-2.3,17.5-11.9,31.1-21.4V109.1z M80,83.6L34,52
		c0.3-4.7,2.7-5.8,4.8-6.7c14.9,10,39.8,27.2,40.1,27.4c0.7,0.5,1.6,0.5,2.3,0c12.4-8.9,33.7-24.2,38.2-27.4c2.3,0.8,4.4,2,4.6,7.8
		C108.3,64.3,85.3,80,80,83.6z M45.6,45h67.2C105,50.6,90,61.4,80,68.6C75.4,65.4,58.5,53.7,45.6,45z M34,105V56.8l11,7.6V111h-5
		C36.7,111,34,108.3,34,105z M118,111h-3V64.3c3.1-2.2,6.1-4.3,9-6.4V105C124,108.3,121.3,111,118,111z"/>
</g>
</svg>
