<?xml version="1.0" encoding="utf-8"?>
<!-- Generator: Adobe Illustrator 19.1.0, SVG Export Plug-In . SVG Version: 6.00 Build 0)  -->
<svg version="1.1" id="Layer_1" xmlns="http://www.w3.org/2000/svg" xmlns:xlink="http://www.w3.org/1999/xlink" x="0px" y="0px"
	 viewBox="0 0 160 156" style="enable-background:new 0 0 160 156;" xml:space="preserve">
<style type="text/css">
	<!-- .st0{fill:#B1509E;} -->
	.st0{fill:none;stroke:white;stroke-width:4;stroke-linejoin:round;stroke-miterlimit:10;}
	.st1{fill:none;stroke:#B1509E;stroke-width:4;stroke-linejoin:round;stroke-miterlimit:10;}
	.st2{fill:none;}
</style>
<g>
	<path class="st0" d="M133,4H31C17.7,4,7,14.7,7,28v102c0,13.3,10.7,24,24,24h102c13.3,0,24-10.7,24-24V28C157,14.7,146.3,4,133,4z
		 M153,130c0,11-9,20-20,20H31c-11,0-20-9-20-20V28c0-11,9-20,20-20h102c11,0,20,9,20,20V130z"/>
	<path class="st0" d="M108,29c-7,0-19,0-19,0c0-7-14-11-21-11s-12,4-12,12s3,16-11,16s-17,1-15,16s4,33,20,38
		c11.1,3.5,17.3,4.5,21.2,4.5c1.7,0,2.9-0.2,3.8-0.5c3-1,4-8,4-11c0-2.6,0.6-3.9,1.1-3.9c0.5,0,0.9,1,0.9,2.9c0,4,8,7,16,7
		s12,5,12,14s-3,11-9,11s-10-2-10-5s3-4,8-4c0-3,0-9,0-9c-5,0-7,0-12,0s-8,6-8,14s-1,17,19,17s23-8,26-17s5-24,5-32c0-11,0-36,0-43
		S126,29,108,29z M124,88c0,7.7-2,22.3-4.8,30.7C116.4,127,114.5,133,97,133c-6.6,0-11.1-1.1-13.1-3.1c-1.8-1.8-1.9-4.5-1.9-8.8
		c0-0.4,0-0.7,0-1.1c0-6.3,2-10,4-10h8v1.3c-6.5,1-8,4.6-8,7.7c0,4.2,3.7,9,14,9c9,0,13-4.6,13-15c0-11.4-5.8-18-16-18
		c-6.4,0-11.1-2.1-12-3.2c-0.1-6.3-4.1-6.6-4.9-6.6c-1.5,0-5.1,0.8-5.1,7.9c0,2.8-0.9,6.3-1.6,7.3c-0.6,0.2-1.4,0.2-2.3,0.2
		c-4,0-10.7-1.5-20-4.3C38,92.1,36,77.1,34.1,62.6L34,61.5c-0.8-5.7-0.7-9.1,0.2-10.1C35.4,50,41.4,50,45,50c5.9,0,9.8-1.3,12.3-3.9
		c3.4-3.6,3.1-8.4,2.8-12.6C60.1,32.3,60,31.1,60,30c0-5.3,2.7-8,8-8c7.1,0,17,4.1,17,7v4h4h19c6.8,0,11.4,1.4,13.7,4
		c1.6,1.8,2.3,4.2,2.3,8V88z"/>
	<path class="st0" d="M106,64c-6,0-12,3-12,10c0,4.5,1.6,5.3,4.1,5.3c1.4,0,3.1-0.3,4.9-0.3c5,0,7,2,9,2s4-2,4-5
		C116,69.9,112,64,106,64z M111.8,76.9c-0.2-0.1-0.6-0.2-0.8-0.3c-1.6-0.6-4.1-1.6-7.9-1.6c-1.1,0-2.2,0.1-3.1,0.2
		c-0.7,0.1-1.3,0.1-1.8,0.1c0,0,0,0,0,0C98,75,98,74.6,98,74c0-5.6,6.1-6,8-6c3.7,0,6,4.2,6,8C112,76.5,111.9,76.8,111.8,76.9z"/>
	<path class="st0" d="M53,38c0-3,0-15,0-15c-8,6-15,14-20,20c5,0,10,0,15,0S53,41,53,38z M49,31.6V38c0,0.3,0,0.6,0,1
		c-0.2,0-0.6,0-1,0h-6.3C44,36.5,46.4,34,49,31.6z"/>
</g>
<rect id="_x3C_Slice_x3E_" x="4" y="3" class="st2" width="156" height="153"/>
</svg>
