<?xml version="1.0" encoding="utf-8"?>
<!-- Generator: Adobe Illustrator 19.1.0, SVG Export Plug-In . SVG Version: 6.00 Build 0)  -->
<svg version="1.1" id="Layer_1" xmlns="http://www.w3.org/2000/svg" xmlns:xlink="http://www.w3.org/1999/xlink" x="0px" y="0px"
	 viewBox="0 0 160 156" style="enable-background:new 0 0 160 156;" xml:space="preserve">
<style type="text/css">
	.st0{fill:#B1509E;}
	.st1{fill:none;stroke:#B1509E;stroke-width:4;stroke-linejoin:round;stroke-miterlimit:10;}
	.st2{fill:none;}
</style>
<g>
	<path class="st0" d="M130,4H28C14.7,4,4,14.7,4,28v102c0,13.3,10.7,24,24,24h102c13.3,0,24-10.7,24-24V28C154,14.7,143.3,4,130,4z
		 M150,130c0,11-9,20-20,20H28c-11,0-20-9-20-20V28C8,17,17,8,28,8h102c11,0,20,9,20,20V130z"/>
	<path class="st0" d="M79,28c-28.1,0-51,22.9-51,51s22.9,51,51,51s51-22.9,51-51S107.1,28,79,28z M79,126c-25.9,0-47-21.1-47-47
		s21.1-47,47-47s47,21.1,47,47S104.9,126,79,126z"/>
	<path class="st0" d="M79,43.5c-19.9,0-36,16.1-36,36s16.1,36,36,36s36-16.1,36-36S98.9,43.5,79,43.5z M79,114.5
		c-19.3,0-35-15.7-35-35s15.7-35,35-35s35,15.7,35,35S98.3,114.5,79,114.5z"/>
	<path class="st0" d="M79,50c-16,0-29,13-29,29s13,29,29,29s29-13,29-29S95,50,79,50z M79,104c-13.8,0-25-11.2-25-25s11.2-25,25-25
		c13.8,0,25,11.2,25,25S92.8,104,79,104z"/>
	<path class="st0" d="M94,79c0-8.3-6.7-15-15-15s-15,6.7-15,15s6.7,15,15,15S94,87.3,94,79z M68,79c0-6.1,4.9-11,11-11
		c6.1,0,11,4.9,11,11s-4.9,11-11,11C72.9,90,68,85.1,68,79z"/>
	<path class="st0" d="M79,63v-8c-9,0-24,8-24,24c3.9,0,8,0,8,0C63,74,67,63,79,63z"/>
	<path class="st0" d="M79,95v8c9,0,24-8,24-24c-3.9,0-8,0-8,0C95,84,91,95,79,95z"/>
</g>
</svg>
