<?xml version="1.0" encoding="utf-8"?>
<!-- Generator: Adobe Illustrator 19.1.0, SVG Export Plug-In . SVG Version: 6.00 Build 0)  -->
<svg version="1.1" id="Layer_1" xmlns="http://www.w3.org/2000/svg" xmlns:xlink="http://www.w3.org/1999/xlink" x="0px" y="0px"
	 viewBox="0 0 160 156" style="enable-background:new 0 0 160 156;" xml:space="preserve">
<style type="text/css">
	.st0{fill:#B1509E;}
	.st1{fill:none;stroke:#B1509E;stroke-width:4;stroke-linejoin:round;stroke-miterlimit:10;}
	.st2{fill:none;}
</style>
<g>
	<path class="st0" d="M155,27c0-13.3-10.7-24-24-24H29C15.7,3,5,13.7,5,27v102c0,13.3,10.7,24,24,24h102c13.3,0,24-10.7,24-24V27z
		 M151,129c0,11-8.6,20-19.7,20h-102c-11,0-20.3-9-20.3-20V47h142v-4H9V27C9,16,18.3,7,29.3,7h102c11,0,19.7,9,19.7,20V129z"/>
	<path class="st0" d="M53.1,68.6c-1.3,1.8-2.8,3.2-4.7,4.3c-1.8,1.1-3.9,1.8-6.2,2.3S38,75.7,35,75.6V86h18v46h14V62H55.6
		C55.2,64,54.3,66.8,53.1,68.6z"/>
	<path class="st0" d="M77,75h33.3c-6.7,8-12,17-16.1,26.7c-4.1,9.7-6.5,19.3-7.4,30.3H102c0.1-5,0.6-9.8,1.7-15.2
		c1-5.4,2.5-10.8,4.4-16.1c1.9-5.3,4.3-10.3,7.1-14.9c2.8-4.7,5.8-8.6,9.8-11.8V62H77V75z"/>
	<polygon class="st0" points="28,21 33,21 33,35 37,35 37,21 42,21 42,18 28,18 	"/>
	<path class="st0" d="M54.7,23.7c-0.3-0.4-0.8-0.8-1.4-1c-0.6-0.2-1.3-0.4-2.2-0.4c-0.6,0-1.3,0-2,0.3c-0.7,0.3-1.2,1.4-1.7,1.4H47
		v-6h-3v17h3v-6.5c0-1.3,0.4-2.2,0.8-2.7c0.4-0.6,1.2-0.8,2.1-0.8c0.8,0,1.3,0.3,1.7,0.8C51.9,26.2,52,27,52,28v7h4v-7.6
		c0-0.8-0.3-1.5-0.4-2.1C55.5,24.6,55,24.1,54.7,23.7z"/>
	<path class="st0" d="M66,29.1c0,1.3,0,2.2-0.4,2.7c-0.4,0.6-1,0.8-1.9,0.8c-0.8,0-1.1-0.3-1.5-0.8c-0.3-0.5-0.2-1.3-0.2-2.3V23h-4
		v7.2c0,0.8,0.2,1.5,0.3,2.1c0.1,0.6,0.4,1.2,0.8,1.6c0.3,0.4,0.8,0.8,1.4,1c0.6,0.2,1.3,0.4,2.3,0.4c0.7,0,1.4-0.3,2.1-0.6
		c0.7-0.3,1.3-0.7,1.7-1.7H67v2h3V23h-4V29.1z"/>
	<path class="st0" d="M78.4,22.4c-0.4,0.1-0.8,0.3-1.1,0.5c-0.4,0.2-0.7,0.6-0.9,0.9c-0.3,0.3-0.5,1.1-0.6,1.1H76v-2h-4v12h4v-5.6
		c0-0.6,0-1.1,0.1-1.6c0.1-0.5,0.3-0.9,0.5-1.3c0.3-0.4,0.6-0.6,1-0.9c0.4-0.2,0.9-0.3,1.6-0.3c0.2,0,0.2,0,0.4,0
		c0.2,0,0.4,0.1,0.4,0.1v-3.2c0-0.1-0.3-0.1-0.5-0.1C79,22.3,78.8,22.3,78.4,22.4z"/>
	<path class="st0" d="M91.4,28.6c-0.4-0.3-0.8-0.5-1.3-0.6c-0.5-0.2-1-0.3-1.5-0.4c-0.5-0.1-1-0.2-1.4-0.3c-0.5-0.1-0.9-0.2-1.2-0.3
		c-0.4-0.1-0.7-0.3-0.9-0.5c-0.2-0.2-0.3-0.4-0.3-0.7c0-0.3,0.1-0.5,0.2-0.6c0.1-0.2,0.3-0.3,0.5-0.3c0.2-0.1,0.4-0.1,0.6-0.2
		c0.2,0,0.4,0,0.6,0c0.6,0,1.1,0,1.6,0.2C88.8,25,89,26,89.1,26h3.2c-0.1-1-0.3-1.3-0.6-1.8c-0.3-0.5-0.7-0.9-1.2-1.2
		c-0.5-0.3-1.1-0.5-1.7-0.6c-0.6-0.1-1.3-0.2-2-0.2c-0.7,0-1.3,0.1-2,0.2c-0.6,0.1-1.2,0.3-1.7,0.6c-0.5,0.3-0.9,0.7-1.2,1.2
		c-0.3,0.5-0.5,1.2-0.5,2c0,0.5,0.1,1,0.3,1.4c0.2,0.4,0.5,0.7,0.9,0.9c0.4,0.2,0.8,0.4,1.3,0.6c0.5,0.2,1,0.3,1.5,0.4
		c1.2,0.3,2.2,0.5,2.8,0.8c0.7,0.3,1,0.6,1,1.2c0,0.3-0.1,0.6-0.2,0.8c-0.1,0.2-0.3,0.4-0.5,0.5c-0.2,0.1-0.5,0.2-0.7,0.3
		c-0.3,0.1-0.5,0.1-0.8,0.1c-0.3,0-0.7,0-1-0.1c-0.3-0.1-0.6-0.2-0.8-0.4c-0.2-0.2-0.4-0.4-0.6-0.6c-0.2-0.3-0.2-0.9-0.2-0.9h-3.2
		c0,1,0.2,1.5,0.6,2.1c0.3,0.6,0.8,1,1.3,1.3c0.5,0.3,1.1,0.6,1.8,0.7c0.7,0.1,1.4,0.2,2.1,0.2c0.7,0,1.4-0.1,2.1-0.2
		c0.7-0.1,1.3-0.4,1.8-0.7c0.5-0.3,1-0.8,1.3-1.3c0.3-0.6,0.5-1.2,0.5-2.1c0-0.6-0.1-1.1-0.3-1.5C92.1,29.2,91.8,28.8,91.4,28.6z"/>
	<path class="st0" d="M103,24h0.3c-0.4-1-0.9-1-1.6-1.3c-0.7-0.3-1.4-0.4-2.1-0.4c-0.9,0-1.7,0.2-2.4,0.6c-0.7,0.4-1.3,0.8-1.7,1.4
		c-0.5,0.6-0.8,1.3-1,2.1c-0.2,0.8-0.3,1.6-0.3,2.4c0,0.9,0.1,1.7,0.3,2.5c0.2,0.8,0.6,1.5,1,2.1c0.5,0.6,1,1.1,1.7,1.5
		c0.7,0.4,1.5,0.5,2.4,0.5c0.8,0,1.5-0.4,2.2-0.7c0.6-0.3,1.2-0.7,1.6-1.7h0.5v2h3V18h-4V24z M103.3,30.2c-0.1,0.5-0.3,0.9-0.5,1.3
		c-0.2,0.4-0.5,0.7-0.9,0.9c-0.4,0.2-0.8,0.3-1.4,0.3c-0.5,0-1-0.1-1.4-0.3c-0.4-0.2-0.7-0.5-0.9-0.9c-0.2-0.4-0.4-0.8-0.5-1.3
		c-0.1-0.5-0.2-1-0.2-1.4c0-0.5,0.1-1,0.2-1.5c0.1-0.5,0.3-0.9,0.5-1.3c0.2-0.4,0.5-0.7,0.9-0.9c0.4-0.2,0.9-0.3,1.4-0.3
		c0.6,0,1,0.1,1.4,0.3c0.4,0.2,0.7,0.5,0.9,0.9c0.2,0.4,0.4,0.8,0.5,1.2c0.1,0.5,0.1,1,0.1,1.5C103.5,29.3,103.4,29.8,103.3,30.2z"
		/>
	<path class="st0" d="M120,32.2v-6.5c0-0.8,0.1-1.4-0.3-1.8c-0.3-0.5-0.7-0.8-1.2-1.1c-0.5-0.3-1.1-0.4-1.7-0.5
		c-0.6-0.1-1.2-0.1-1.9-0.1c-0.7,0-1.4,0.1-2,0.2c-0.7,0.1-1.3,0.4-1.8,0.7c-0.5,0.3-1,0.5-1.3,1.1c-0.4,0.5-0.5,1.8-0.6,1.8h3.4
		c0.1,0,0.3-0.9,0.7-1.2c0.4-0.3,0.9-0.3,1.6-0.3c0.3,0,0.6,0.1,0.9,0.1c0.3,0,0.5,0.1,0.7,0.3c0.2,0.1,0.4,0.3,0.5,0.5
		c0.1,0.2,0.2,0.5,0.2,0.9c0,0.4-0.1,0.6-0.3,0.8c-0.2,0.2-0.5,0.3-0.9,0.4c-0.4,0.1-0.8,0.2-1.3,0.2c-0.5,0-1,0.1-1.5,0.2
		c-0.5,0.1-1,0.2-1.5,0.3c-0.5,0.1-1,0.3-1.3,0.6c-0.4,0.3-0.7,0.6-1,1.1c-0.2,0.5-0.4,1-0.4,1.7c0,0.6,0.1,1.2,0.3,1.7
		c0.2,0.5,0.5,0.8,0.9,1.2c0.4,0.3,0.8,0.5,1.3,0.7c0.5,0.1,1.1,0.2,1.7,0.2c0.8,0,1.5-0.1,2.3-0.3c0.7-0.2,1.4-0.6,1.9-1.2
		c0,0.2,0,0.4,0.1,0.6c0,0.2,0.1,0.4,0.2,0.6h3.5c-0.2-0.3-0.5-0.6-0.6-1.2C120.3,33.3,120,32.8,120,32.2z M117,30.2
		c0,0.2,0,0.4,0,0.8c0,0.3-0.1,0.6-0.3,0.9c-0.2,0.3-0.4,0.6-0.8,0.8c-0.4,0.2-0.9,0.3-1.6,0.3c-0.3,0-0.5,0-0.8-0.1
		c-0.3,0-0.5-0.1-0.7-0.3c-0.2-0.1-0.3-0.3-0.5-0.5c-0.1-0.2-0.2-0.5-0.2-0.8c0-0.3,0.1-0.6,0.2-0.8c0.1-0.2,0.3-0.4,0.4-0.5
		c0.2-0.1,0.4-0.2,0.6-0.3c0.2-0.1,0.5-0.1,0.8-0.2c0.3,0,0.5-0.1,0.8-0.1c0.3,0,0.5-0.1,0.8-0.1c0.2,0,0.5-0.1,0.7-0.2
		c0.2-0.1,0.5-0.2,0.5-0.3V30.2z"/>
	<path class="st0" d="M128.2,31L128.2,31l-2.9-8h-3.6l4.3,11.4c0.1,0.2,0.1,0.4,0.1,0.7c0,0.4-0.1,0.7-0.3,1c-0.2,0.3-0.5,0.5-1,0.5
		c-0.3,0-0.6,0-0.9,0c-0.3,0-0.9-0.1-0.9-0.1v2.8c0,0,0.6,0.1,1,0.1c0.3,0,0.7,0,1,0c1.2,0,2.1-0.2,2.7-0.6c0.7-0.4,1.2-0.9,1.5-2
		l5.2-13.7h-3.5L128.2,31z"/>
</g>
</svg>
