<?xml version="1.0" encoding="utf-8"?>
<!-- Generator: Adobe Illustrator 19.1.0, SVG Export Plug-In . SVG Version: 6.00 Build 0)  -->
<svg version="1.1" id="Layer_1" xmlns="http://www.w3.org/2000/svg" xmlns:xlink="http://www.w3.org/1999/xlink" x="0px" y="0px"
	 viewBox="0 0 160 156" style="enable-background:new 0 0 160 156;" xml:space="preserve">
<style type="text/css">
	<!-- .st0{fill:#B1509E;} -->
	.st0{fill:none;stroke:white;stroke-width:4;stroke-linejoin:round;stroke-miterlimit:10;}
	.st1{fill:none;stroke:#B1509E;stroke-width:4;stroke-linejoin:round;stroke-miterlimit:10;}
	.st2{fill:none;}
</style>
<g>
	<g>
		<g>
			<g>
				<path class="st0" d="M113.5,48c-6.3,0-11.5-5.2-11.5-11.5S107.2,25,113.5,25c6.3,0,11.5,5.2,11.5,11.5S119.8,48,113.5,48z
					 M113.5,29c-4.1,0-7.5,3.4-7.5,7.5s3.4,7.5,7.5,7.5c4.1,0,7.5-3.4,7.5-7.5S117.6,29,113.5,29z"/>
			</g>
		</g>
	</g>
</g>
<g>
	<path class="st0" d="M60.9,43.3C55,27.8,45.6,19.2,34.5,19.2c-3.1,0-6.2,0.7-9.3,1.9c-5.4,2.2-9.6,7-11.9,13.5
		c-3.3,9.2-2.2,20.5,2.9,30.2C24.5,81.5,37,83.3,42,83.3c3.9,0,7.6-1,10.1-2.7C54,79.4,70.2,67.7,60.9,43.3z M42,79.3
		c-4.2,0-14.9-1.6-22.2-16.3c-4.6-8.8-5.7-18.9-2.7-27.1c1.9-5.4,5.4-9.4,9.7-11.2c2.6-1.1,5.2-1.6,7.7-1.6
		c9.3,0,17.4,7.6,22.6,21.5c8.2,21.5-5.6,31.6-7.2,32.6C48,78.6,45.1,79.3,42,79.3z"/>
	<path class="st0" d="M130,3H28C14.7,3,4,13.7,4,27v102c0,13.3,10.7,24,24,24h102c13.3,0,24-10.7,24-24V27C154,13.7,143.3,3,130,3z
		 M150,26.6l-14.7,14.7c1-5.1,0.6-10.5-1.3-15.1l11.7-11.5C148.3,18,149.9,22.1,150,26.6z M28,7h102c5.7,0,10.8,2.4,14.4,6.2
		l-11.3,11.1c0-0.1-0.1-0.1-0.1-0.2c-3.8-7.1-10.9-11.1-20-11.1c-8.4,0-15,3.8-18.5,10.7c-4.2,8.2-3,19.2,2.9,27.5
		c1.2,1.6,2.3,3.2,3.3,4.8L58.4,98.2c-1.8-2.3-2.8-4.4-2.9-6.2c-0.1-3.5,3.2-6.5,7.1-10c1.3-1.1,2.6-2.3,3.8-3.6
		c8.7-8.7,13.4-17.9,14.6-28.2c1.1-9.5-9.4-23-12.1-26.1c3.7,0.2,9.8,0.9,9.9,0.9c0.5,0.1,1-0.1,1.4-0.4l11-8c0.7-0.5,1-1.4,0.7-2.2
		c-0.3-0.8-1-1.4-1.9-1.4H38c-13.8,0-23.9,5.5-29.8,11.5C9.4,14.7,17.8,7,28,7z M128.3,47.9c-4.1,6.1-10.3,16.4-13.7,26.9
		c-2.3-8.4-7.1-16.4-14-26c-5.1-7.1-6.1-16.5-2.6-23.4c2.8-5.5,8.1-8.5,15-8.5c9.7,0,14.3,4.9,16.5,9
		C133,32.6,132.5,41.6,128.3,47.9z M8,84.9c6.4,5.1,17.5,8.6,24.7,5.9c1.2-0.4,2-0.6,2.5-0.7c-1.9,4-1.8,13.1,2.4,17.2
		c1.3,1.3,1.9,2.1,2.2,2.6c-0.2,0-0.4,0-0.8,0c-13,0-23.5,3.4-31,6.1V84.9z M8,129.8c5.3-5.2,17.4-8.9,28-10.3l-22.9,22.9
		C10.2,139,8.2,134.6,8,129.8z M28,149c-5.2,0-9.8-2-13.4-5.2l24.7-24.7c3.3-0.3,6.4-0.4,8.9-0.2c0.8,0.7,2.7,2.3,5.2,4.3L28.5,149
		H28z M73.3,149h-42L55,124.5c2.3,1.9,5,4,7.8,6.1C69.8,135.8,74.3,140,73.3,149z M77.3,149c1.1-10.7-4.6-16-12.1-21.6
		c-7.9-5.9-14.8-11.9-14.9-11.9c-0.3-0.3-0.7-0.4-1.1-0.5c-9.3-0.8-30.4,1.9-41.2,9.6v-4.2c7.3-2.7,17.8-6.4,31-6.4
		c1,0,3.9,0,4.8-2.3c1-2.3-1.2-4.9-3.4-7.2c-2.9-2.9-2.9-10.2-1.6-12.7c0.9-1.8,0.8-3.5-0.2-4.6c-1.8-1.9-5-1-7.3-0.2
		c-6.7,2.5-19.2-2.4-23.3-7.8V31c4.3-6.1,15.3-14,30-14h45.8l-5.4,3.9C76.2,20.7,69.6,20,67,20c-1,0-3,0-3.7,1.7
		c-0.7,1.7,0.6,3,2.3,4.7C67.7,28.6,77.9,42,77,49.8c-1,9.4-5.4,17.8-13.4,25.8c-1.2,1.2-2.4,2.3-3.7,3.4c-4.4,4-8.6,7.7-8.4,13.1
		c0.2,5.1,4.4,10.6,13.2,17.4c21.9,16.9,26.4,22.8,17.1,39.4H77.3z M130,149H86.4c8.9-17.2,2.9-25.2-15.9-40.1l9.7-9.7l69.7,31.9
		C148.8,141.2,140.3,149,130,149z M150,129L80.4,97.1c-0.4-0.2-0.8-0.1-1.1,0.2l-10.4,10.4c-0.5-0.4-1.1-0.9-1.7-1.3
		c-3.2-2.4-5.7-4.7-7.5-6.7l42.1-42.1c2.5,3.8,4.6,7.4,6.2,11L88.3,88.3c-0.2,0.2-0.3,0.6-0.3,0.9c0.1,0.3,0.3,0.6,0.6,0.7
		l61.4,26.3V129z M150,114.1L90.8,88.7l18.1-18.1c2.1,5.2,3.3,10.3,3.2,15.9c-0.1,0.9-0.1,1.8-0.1,2.6c0,1.1,0.9,2,1.9,2
		c0,0,0,0,0.1,0c1,0,1.9-0.8,2-1.9c0.1-0.9,0.1-1.7,0.1-2.6c1.1-13.1,10.2-28.4,15.6-36.5c1-1.5,1.8-3.1,2.4-4.8L150,29.4V114.1z"/>
</g>
</svg>
