<?xml version="1.0" encoding="utf-8"?>
<!-- Generator: Adobe Illustrator 19.1.0, SVG Export Plug-In . SVG Version: 6.00 Build 0)  -->
<svg version="1.1" id="Layer_1" xmlns="http://www.w3.org/2000/svg" xmlns:xlink="http://www.w3.org/1999/xlink" x="0px" y="0px"
	 viewBox="0 0 160 156" style="enable-background:new 0 0 160 156;" xml:space="preserve">
<style type="text/css">
	<!-- .st0{fill:red;} -->
	.st0{fill:none;stroke:white;stroke-width:4;stroke-linejoin:round;stroke-miterlimit:10;}
	.st1{fill:none;stroke:white;stroke-width:4;stroke-linejoin:round;stroke-miterlimit:10;}
	.st2{fill:none;}
</style>
<g>
	<path class="st0" d="M124,41v11h-9c-5.3,0-8,2.7-8,8v13v4h4h12.5l-1.1,10H111h-4v4v58H93V91v-4h-4h-7V77h7h4v-4V53
		c0-0.5,0.2-12,15-12H124 M132,3H30C16.7,3,6,13.7,6,27v102c0,13.3,10.7,24,24,24h59h22h21c13.3,0,24-10.7,24-24V27
		C156,13.7,145.3,3,132,3L132,3z M30,149c-11,0-20-9-20-20V27c0-11,9-20,20-20h102c11,0,20,9,20,20v102c0,11-9,20-20,20h-21V91h15
		l2-18h-17c0,0,0-9,0-13s2-4,4-4s13,0,13,0V37c0,0-3,0-20,0S89,50,89,53s0,20,0,20H78v18h11v58H30L30,149z"/>
	<!-- 	<path class="st0" d="M30,149c-11,0-20-9-20-20V27c0-11,9-20,20-20h102c11,0,20,9,20,20v102c0,11-9,20-20,20h-21V91h15
		l2-18h-17c0,0,0-9,0-13s2-4,4-4s13,0,13,0V37c0,0-3,0-20,0S89,50,89,53s0,20,0,20H78v18h11v58H30L30,149z"/> -->
</g>
</svg>
